G04 #@! TF.GenerationSoftware,KiCad,Pcbnew,6.0.11-2627ca5db0~126~ubuntu22.04.1*
G04 #@! TF.CreationDate,2023-10-21T07:57:24+01:00*
G04 #@! TF.ProjectId,LEDClock,4c454443-6c6f-4636-9b2e-6b696361645f,rev?*
G04 #@! TF.SameCoordinates,PX44794c0PY22243c0*
G04 #@! TF.FileFunction,Legend,Bot*
G04 #@! TF.FilePolarity,Positive*
%FSLAX45Y45*%
G04 Gerber Fmt 4.5, Leading zero omitted, Abs format (unit mm)*
G04 Created by KiCad (PCBNEW 6.0.11-2627ca5db0~126~ubuntu22.04.1) date 2023-10-21 07:57:24*
%MOMM*%
%LPD*%
G01*
G04 APERTURE LIST*
G04 Aperture macros list*
%AMRoundRect*
0 Rectangle with rounded corners*
0 $1 Rounding radius*
0 $2 $3 $4 $5 $6 $7 $8 $9 X,Y pos of 4 corners*
0 Add a 4 corners polygon primitive as box body*
4,1,4,$2,$3,$4,$5,$6,$7,$8,$9,$2,$3,0*
0 Add four circle primitives for the rounded corners*
1,1,$1+$1,$2,$3*
1,1,$1+$1,$4,$5*
1,1,$1+$1,$6,$7*
1,1,$1+$1,$8,$9*
0 Add four rect primitives between the rounded corners*
20,1,$1+$1,$2,$3,$4,$5,0*
20,1,$1+$1,$4,$5,$6,$7,0*
20,1,$1+$1,$6,$7,$8,$9,0*
20,1,$1+$1,$8,$9,$2,$3,0*%
G04 Aperture macros list end*
%ADD10C,0.100000*%
%ADD11C,0.120000*%
%ADD12O,1.800000X1.100000*%
%ADD13O,2.200000X1.100000*%
%ADD14C,3.200000*%
%ADD15RoundRect,0.250000X-0.620000X-0.845000X0.620000X-0.845000X0.620000X0.845000X-0.620000X0.845000X0*%
%ADD16O,1.740000X2.190000*%
%ADD17R,1.500000X1.500000*%
%ADD18C,1.500000*%
%ADD19C,2.000000*%
%ADD20R,1.800000X1.800000*%
%ADD21C,1.800000*%
%ADD22C,0.800000*%
G04 APERTURE END LIST*
D10*
X11731000Y-231107D02*
X11802428Y-231107D01*
X11802428Y-81107D01*
X11681000Y-152536D02*
X11631000Y-152536D01*
X11609571Y-231107D02*
X11681000Y-231107D01*
X11681000Y-81107D01*
X11609571Y-81107D01*
X11545286Y-231107D02*
X11545286Y-81107D01*
X11509571Y-81107D01*
X11488143Y-88250D01*
X11473857Y-102536D01*
X11466714Y-116821D01*
X11459571Y-145393D01*
X11459571Y-166821D01*
X11466714Y-195393D01*
X11473857Y-209678D01*
X11488143Y-223964D01*
X11509571Y-231107D01*
X11545286Y-231107D01*
X11195286Y-216821D02*
X11202428Y-223964D01*
X11223857Y-231107D01*
X11238143Y-231107D01*
X11259571Y-223964D01*
X11273857Y-209678D01*
X11281000Y-195393D01*
X11288143Y-166821D01*
X11288143Y-145393D01*
X11281000Y-116821D01*
X11273857Y-102536D01*
X11259571Y-88250D01*
X11238143Y-81107D01*
X11223857Y-81107D01*
X11202428Y-88250D01*
X11195286Y-95393D01*
X11109571Y-231107D02*
X11123857Y-223964D01*
X11131000Y-209678D01*
X11131000Y-81107D01*
X11031000Y-231107D02*
X11045286Y-223964D01*
X11052429Y-216821D01*
X11059571Y-202536D01*
X11059571Y-159679D01*
X11052429Y-145393D01*
X11045286Y-138250D01*
X11031000Y-131107D01*
X11009571Y-131107D01*
X10995286Y-138250D01*
X10988143Y-145393D01*
X10981000Y-159679D01*
X10981000Y-202536D01*
X10988143Y-216821D01*
X10995286Y-223964D01*
X11009571Y-231107D01*
X11031000Y-231107D01*
X10852429Y-223964D02*
X10866714Y-231107D01*
X10895286Y-231107D01*
X10909571Y-223964D01*
X10916714Y-216821D01*
X10923857Y-202536D01*
X10923857Y-159679D01*
X10916714Y-145393D01*
X10909571Y-138250D01*
X10895286Y-131107D01*
X10866714Y-131107D01*
X10852429Y-138250D01*
X10788143Y-231107D02*
X10788143Y-81107D01*
X10773857Y-173964D02*
X10731000Y-231107D01*
X10731000Y-131107D02*
X10788143Y-188250D01*
X10509571Y-288250D02*
X10516714Y-281107D01*
X10531000Y-259678D01*
X10538143Y-245393D01*
X10545286Y-223964D01*
X10552429Y-188250D01*
X10552429Y-159679D01*
X10545286Y-123964D01*
X10538143Y-102536D01*
X10531000Y-88250D01*
X10516714Y-66821D01*
X10509571Y-59678D01*
X10388143Y-223964D02*
X10402429Y-231107D01*
X10431000Y-231107D01*
X10445286Y-223964D01*
X10452429Y-216821D01*
X10459571Y-202536D01*
X10459571Y-159679D01*
X10452429Y-145393D01*
X10445286Y-138250D01*
X10431000Y-131107D01*
X10402429Y-131107D01*
X10388143Y-138250D01*
X10338143Y-288250D02*
X10331000Y-281107D01*
X10316714Y-259678D01*
X10309571Y-245393D01*
X10302429Y-223964D01*
X10295286Y-188250D01*
X10295286Y-159679D01*
X10302429Y-123964D01*
X10309571Y-102536D01*
X10316714Y-88250D01*
X10331000Y-66821D01*
X10338143Y-59678D01*
X10116714Y-223964D02*
X10095286Y-231107D01*
X10059571Y-231107D01*
X10045286Y-223964D01*
X10038143Y-216821D01*
X10031000Y-202536D01*
X10031000Y-188250D01*
X10038143Y-173964D01*
X10045286Y-166821D01*
X10059571Y-159679D01*
X10088143Y-152536D01*
X10102429Y-145393D01*
X10109571Y-138250D01*
X10116714Y-123964D01*
X10116714Y-109678D01*
X10109571Y-95393D01*
X10102429Y-88250D01*
X10088143Y-81107D01*
X10052429Y-81107D01*
X10031000Y-88250D01*
X9966714Y-231107D02*
X9966714Y-81107D01*
X9931000Y-81107D01*
X9909571Y-88250D01*
X9895286Y-102536D01*
X9888143Y-116821D01*
X9881000Y-145393D01*
X9881000Y-166821D01*
X9888143Y-195393D01*
X9895286Y-209678D01*
X9909571Y-223964D01*
X9931000Y-231107D01*
X9966714Y-231107D01*
X9745286Y-231107D02*
X9816714Y-231107D01*
X9816714Y-81107D01*
X9588143Y-95393D02*
X9581000Y-88250D01*
X9566714Y-81107D01*
X9531000Y-81107D01*
X9516714Y-88250D01*
X9509571Y-95393D01*
X9502429Y-109678D01*
X9502429Y-123964D01*
X9509571Y-145393D01*
X9595286Y-231107D01*
X9502429Y-231107D01*
X9409571Y-81107D02*
X9395286Y-81107D01*
X9381000Y-88250D01*
X9373857Y-95393D01*
X9366714Y-109678D01*
X9359571Y-138250D01*
X9359571Y-173964D01*
X9366714Y-202536D01*
X9373857Y-216821D01*
X9381000Y-223964D01*
X9395286Y-231107D01*
X9409571Y-231107D01*
X9423857Y-223964D01*
X9431000Y-216821D01*
X9438143Y-202536D01*
X9445286Y-173964D01*
X9445286Y-138250D01*
X9438143Y-109678D01*
X9431000Y-95393D01*
X9423857Y-88250D01*
X9409571Y-81107D01*
X9302429Y-95393D02*
X9295286Y-88250D01*
X9281000Y-81107D01*
X9245286Y-81107D01*
X9231000Y-88250D01*
X9223857Y-95393D01*
X9216714Y-109678D01*
X9216714Y-123964D01*
X9223857Y-145393D01*
X9309571Y-231107D01*
X9216714Y-231107D01*
X9166714Y-81107D02*
X9073857Y-81107D01*
X9123857Y-138250D01*
X9102429Y-138250D01*
X9088143Y-145393D01*
X9081000Y-152536D01*
X9073857Y-166821D01*
X9073857Y-202536D01*
X9081000Y-216821D01*
X9088143Y-223964D01*
X9102429Y-231107D01*
X9145286Y-231107D01*
X9159571Y-223964D01*
X9166714Y-216821D01*
X8852429Y-288250D02*
X8859571Y-281107D01*
X8873857Y-259678D01*
X8881000Y-245393D01*
X8888143Y-223964D01*
X8895286Y-188250D01*
X8895286Y-159679D01*
X8888143Y-123964D01*
X8881000Y-102536D01*
X8873857Y-88250D01*
X8859571Y-66821D01*
X8852429Y-59678D01*
X8709571Y-231107D02*
X8759571Y-159679D01*
X8795286Y-231107D02*
X8795286Y-81107D01*
X8738143Y-81107D01*
X8723857Y-88250D01*
X8716714Y-95393D01*
X8709571Y-109678D01*
X8709571Y-131107D01*
X8716714Y-145393D01*
X8723857Y-152536D01*
X8738143Y-159679D01*
X8795286Y-159679D01*
X8645286Y-152536D02*
X8595286Y-152536D01*
X8573857Y-231107D02*
X8645286Y-231107D01*
X8645286Y-81107D01*
X8573857Y-81107D01*
X8531000Y-81107D02*
X8481000Y-231107D01*
X8431000Y-81107D01*
X8273857Y-188250D02*
X8202428Y-188250D01*
X8288143Y-231107D02*
X8238143Y-81107D01*
X8188143Y-231107D01*
X8152428Y-288250D02*
X8145286Y-281107D01*
X8131000Y-259678D01*
X8123857Y-245393D01*
X8116714Y-223964D01*
X8109571Y-188250D01*
X8109571Y-159679D01*
X8116714Y-123964D01*
X8123857Y-102536D01*
X8131000Y-88250D01*
X8145286Y-66821D01*
X8152428Y-59678D01*
X8907476Y-649095D02*
X8907476Y-681476D01*
X8905571Y-685286D01*
X8903667Y-687190D01*
X8899857Y-689095D01*
X8892238Y-689095D01*
X8888429Y-687190D01*
X8886524Y-685286D01*
X8884619Y-681476D01*
X8884619Y-649095D01*
X8848429Y-649095D02*
X8856048Y-649095D01*
X8859857Y-651000D01*
X8861762Y-652905D01*
X8865571Y-658619D01*
X8867476Y-666238D01*
X8867476Y-681476D01*
X8865571Y-685286D01*
X8863667Y-687190D01*
X8859857Y-689095D01*
X8852238Y-689095D01*
X8848429Y-687190D01*
X8846524Y-685286D01*
X8844619Y-681476D01*
X8844619Y-671952D01*
X8846524Y-668143D01*
X8848429Y-666238D01*
X8852238Y-664333D01*
X8859857Y-664333D01*
X8863667Y-666238D01*
X8865571Y-668143D01*
X8867476Y-671952D01*
X12030333Y-2536190D02*
X12024619Y-2538095D01*
X12015095Y-2538095D01*
X12011286Y-2536190D01*
X12009381Y-2534286D01*
X12007476Y-2530476D01*
X12007476Y-2526667D01*
X12009381Y-2522857D01*
X12011286Y-2520952D01*
X12015095Y-2519048D01*
X12022714Y-2517143D01*
X12026524Y-2515238D01*
X12028428Y-2513333D01*
X12030333Y-2509524D01*
X12030333Y-2505714D01*
X12028428Y-2501905D01*
X12026524Y-2500000D01*
X12022714Y-2498095D01*
X12013190Y-2498095D01*
X12007476Y-2500000D01*
X11994143Y-2498095D02*
X11984619Y-2538095D01*
X11977000Y-2509524D01*
X11969381Y-2538095D01*
X11959857Y-2498095D01*
X11948428Y-2498095D02*
X11923667Y-2498095D01*
X11937000Y-2513333D01*
X11931286Y-2513333D01*
X11927476Y-2515238D01*
X11925571Y-2517143D01*
X11923667Y-2520952D01*
X11923667Y-2530476D01*
X11925571Y-2534286D01*
X11927476Y-2536190D01*
X11931286Y-2538095D01*
X11942714Y-2538095D01*
X11946524Y-2536190D01*
X11948428Y-2534286D01*
X12021333Y-1765190D02*
X12015619Y-1767095D01*
X12006095Y-1767095D01*
X12002286Y-1765190D01*
X12000381Y-1763286D01*
X11998476Y-1759476D01*
X11998476Y-1755667D01*
X12000381Y-1751857D01*
X12002286Y-1749952D01*
X12006095Y-1748048D01*
X12013714Y-1746143D01*
X12017524Y-1744238D01*
X12019428Y-1742333D01*
X12021333Y-1738524D01*
X12021333Y-1734714D01*
X12019428Y-1730905D01*
X12017524Y-1729000D01*
X12013714Y-1727095D01*
X12004190Y-1727095D01*
X11998476Y-1729000D01*
X11985143Y-1727095D02*
X11975619Y-1767095D01*
X11968000Y-1738524D01*
X11960381Y-1767095D01*
X11950857Y-1727095D01*
X11937524Y-1730905D02*
X11935619Y-1729000D01*
X11931809Y-1727095D01*
X11922286Y-1727095D01*
X11918476Y-1729000D01*
X11916571Y-1730905D01*
X11914667Y-1734714D01*
X11914667Y-1738524D01*
X11916571Y-1744238D01*
X11939428Y-1767095D01*
X11914667Y-1767095D01*
X6279024Y-1672095D02*
X6279024Y-1632095D01*
X6269500Y-1632095D01*
X6263786Y-1634000D01*
X6259976Y-1637809D01*
X6258071Y-1641619D01*
X6256167Y-1649238D01*
X6256167Y-1654952D01*
X6258071Y-1662571D01*
X6259976Y-1666381D01*
X6263786Y-1670190D01*
X6269500Y-1672095D01*
X6279024Y-1672095D01*
X6221881Y-1632095D02*
X6229500Y-1632095D01*
X6233309Y-1634000D01*
X6235214Y-1635905D01*
X6239024Y-1641619D01*
X6240928Y-1649238D01*
X6240928Y-1664476D01*
X6239024Y-1668286D01*
X6237119Y-1670190D01*
X6233309Y-1672095D01*
X6225690Y-1672095D01*
X6221881Y-1670190D01*
X6219976Y-1668286D01*
X6218071Y-1664476D01*
X6218071Y-1654952D01*
X6219976Y-1651143D01*
X6221881Y-1649238D01*
X6225690Y-1647333D01*
X6233309Y-1647333D01*
X6237119Y-1649238D01*
X6239024Y-1651143D01*
X6240928Y-1654952D01*
X12033333Y-991190D02*
X12027619Y-993095D01*
X12018095Y-993095D01*
X12014286Y-991190D01*
X12012381Y-989286D01*
X12010476Y-985476D01*
X12010476Y-981667D01*
X12012381Y-977857D01*
X12014286Y-975952D01*
X12018095Y-974048D01*
X12025714Y-972143D01*
X12029524Y-970238D01*
X12031428Y-968333D01*
X12033333Y-964524D01*
X12033333Y-960714D01*
X12031428Y-956905D01*
X12029524Y-955000D01*
X12025714Y-953095D01*
X12016190Y-953095D01*
X12010476Y-955000D01*
X11997143Y-953095D02*
X11987619Y-993095D01*
X11980000Y-964524D01*
X11972381Y-993095D01*
X11962857Y-953095D01*
X11926667Y-993095D02*
X11949524Y-993095D01*
X11938095Y-993095D02*
X11938095Y-953095D01*
X11941905Y-958809D01*
X11945714Y-962619D01*
X11949524Y-964524D01*
X5927476Y-635095D02*
X5927476Y-667476D01*
X5925571Y-671286D01*
X5923667Y-673190D01*
X5919857Y-675095D01*
X5912238Y-675095D01*
X5908428Y-673190D01*
X5906524Y-671286D01*
X5904619Y-667476D01*
X5904619Y-635095D01*
X5866524Y-635095D02*
X5885571Y-635095D01*
X5887476Y-654143D01*
X5885571Y-652238D01*
X5881762Y-650333D01*
X5872238Y-650333D01*
X5868428Y-652238D01*
X5866524Y-654143D01*
X5864619Y-657952D01*
X5864619Y-667476D01*
X5866524Y-671286D01*
X5868428Y-673190D01*
X5872238Y-675095D01*
X5881762Y-675095D01*
X5885571Y-673190D01*
X5887476Y-671286D01*
X6279024Y-2572095D02*
X6279024Y-2532095D01*
X6269500Y-2532095D01*
X6263786Y-2534000D01*
X6259976Y-2537810D01*
X6258071Y-2541619D01*
X6256167Y-2549238D01*
X6256167Y-2554952D01*
X6258071Y-2562571D01*
X6259976Y-2566381D01*
X6263786Y-2570190D01*
X6269500Y-2572095D01*
X6279024Y-2572095D01*
X6242833Y-2532095D02*
X6216167Y-2532095D01*
X6233309Y-2572095D01*
X3487476Y-645095D02*
X3487476Y-677476D01*
X3485571Y-681286D01*
X3483667Y-683190D01*
X3479857Y-685095D01*
X3472238Y-685095D01*
X3468428Y-683190D01*
X3466524Y-681286D01*
X3464619Y-677476D01*
X3464619Y-645095D01*
X3428428Y-658429D02*
X3428428Y-685095D01*
X3437952Y-643190D02*
X3447476Y-671762D01*
X3422714Y-671762D01*
X12041333Y-3311190D02*
X12035619Y-3313095D01*
X12026095Y-3313095D01*
X12022286Y-3311190D01*
X12020381Y-3309286D01*
X12018476Y-3305476D01*
X12018476Y-3301667D01*
X12020381Y-3297857D01*
X12022286Y-3295952D01*
X12026095Y-3294048D01*
X12033714Y-3292143D01*
X12037524Y-3290238D01*
X12039428Y-3288333D01*
X12041333Y-3284524D01*
X12041333Y-3280714D01*
X12039428Y-3276905D01*
X12037524Y-3275000D01*
X12033714Y-3273095D01*
X12024190Y-3273095D01*
X12018476Y-3275000D01*
X12005143Y-3273095D02*
X11995619Y-3313095D01*
X11988000Y-3284524D01*
X11980381Y-3313095D01*
X11970857Y-3273095D01*
X11938476Y-3286428D02*
X11938476Y-3313095D01*
X11948000Y-3271190D02*
X11957524Y-3299762D01*
X11932762Y-3299762D01*
X11364476Y-648095D02*
X11364476Y-680476D01*
X11362571Y-684286D01*
X11360667Y-686190D01*
X11356857Y-688095D01*
X11349238Y-688095D01*
X11345428Y-686190D01*
X11343524Y-684286D01*
X11341619Y-680476D01*
X11341619Y-648095D01*
X11326381Y-648095D02*
X11299714Y-648095D01*
X11316857Y-688095D01*
D11*
X6543500Y-706000D02*
X6543500Y-4262000D01*
X8956500Y-706000D02*
X6543500Y-706000D01*
X8956500Y-4135000D02*
X8829500Y-4262000D01*
X8956500Y-4262000D02*
X8956500Y-706000D01*
X6543500Y-4262000D02*
X8956500Y-4262000D01*
X11633000Y-2961000D02*
X11633000Y-2811000D01*
X12333000Y-2811000D02*
X12333000Y-2961000D01*
X11758000Y-2561000D02*
X12208000Y-2561000D01*
X12208000Y-3211000D02*
X11758000Y-3211000D01*
X12332000Y-2040000D02*
X12332000Y-2190000D01*
X11757000Y-1790000D02*
X12207000Y-1790000D01*
X11632000Y-2190000D02*
X11632000Y-2040000D01*
X12207000Y-2440000D02*
X11757000Y-2440000D01*
X6455500Y-1860100D02*
X6455500Y-1892000D01*
X6455500Y-2108000D02*
X6455500Y-2139900D01*
X6417833Y-1892000D02*
G75*
G03*
X6081229Y-1891904I-168333J-108000D01*
G01*
X6025176Y-2108072D02*
G75*
G03*
X6455500Y-2139875I224324J108072D01*
G01*
X6455500Y-1860125D02*
G75*
G03*
X6025176Y-1891928I-206000J-139875D01*
G01*
X6081229Y-2108096D02*
G75*
G03*
X6417833Y-2108000I168271J108096D01*
G01*
X11632000Y-1418000D02*
X11632000Y-1268000D01*
X11757000Y-1018000D02*
X12207000Y-1018000D01*
X12207000Y-1668000D02*
X11757000Y-1668000D01*
X12332000Y-1268000D02*
X12332000Y-1418000D01*
X3540500Y-4260000D02*
X5953500Y-4260000D01*
X5953500Y-704000D02*
X3540500Y-704000D01*
X5953500Y-4133000D02*
X5826500Y-4260000D01*
X3540500Y-704000D02*
X3540500Y-4260000D01*
X5953500Y-4260000D02*
X5953500Y-704000D01*
X6455500Y-2760100D02*
X6455500Y-2792000D01*
X6455500Y-3008000D02*
X6455500Y-3039900D01*
X6417833Y-2792000D02*
G75*
G03*
X6081229Y-2791904I-168333J-108000D01*
G01*
X6455500Y-2760125D02*
G75*
G03*
X6025176Y-2791928I-206000J-139875D01*
G01*
X6081229Y-3008096D02*
G75*
G03*
X6417833Y-3008000I168271J108096D01*
G01*
X6025176Y-3008072D02*
G75*
G03*
X6455500Y-3039875I224324J108072D01*
G01*
X1102500Y-705000D02*
X1102500Y-4261000D01*
X3515500Y-705000D02*
X1102500Y-705000D01*
X1102500Y-4261000D02*
X3515500Y-4261000D01*
X3515500Y-4261000D02*
X3515500Y-705000D01*
X3515500Y-4134000D02*
X3388500Y-4261000D01*
X12211000Y-3981000D02*
X11761000Y-3981000D01*
X11636000Y-3731000D02*
X11636000Y-3581000D01*
X11761000Y-3331000D02*
X12211000Y-3331000D01*
X12336000Y-3581000D02*
X12336000Y-3731000D01*
X8982500Y-706000D02*
X8982500Y-4262000D01*
X11395500Y-706000D02*
X8982500Y-706000D01*
X11395500Y-4262000D02*
X11395500Y-706000D01*
X8982500Y-4262000D02*
X11395500Y-4262000D01*
X11395500Y-4135000D02*
X11268500Y-4262000D01*
%LPC*%
D12*
X9745000Y-3402500D03*
X9185000Y-3402500D03*
D13*
X9465000Y-3617500D03*
D14*
X400000Y-4600000D03*
X6250000Y-400000D03*
D15*
X6741000Y-4622000D03*
D16*
X6995000Y-4622000D03*
X7249000Y-4622000D03*
X7503000Y-4622000D03*
D14*
X400000Y-400000D03*
D15*
X3664000Y-4624000D03*
D16*
X3918000Y-4624000D03*
X4172000Y-4624000D03*
D15*
X9354000Y-4659000D03*
D16*
X9608000Y-4659000D03*
D14*
X12100000Y-4600000D03*
X12100000Y-400000D03*
X6250000Y-4600000D03*
D17*
X8258000Y-4008000D03*
D18*
X8004000Y-4008000D03*
X7750000Y-4008000D03*
X7496000Y-4008000D03*
X7242000Y-4008000D03*
X7242000Y-960000D03*
X7496000Y-960000D03*
X7750000Y-960000D03*
X8004000Y-960000D03*
X8258000Y-960000D03*
D19*
X12308000Y-2661000D03*
X11658000Y-2661000D03*
X12308000Y-3111000D03*
X11658000Y-3111000D03*
X12307000Y-1890000D03*
X11657000Y-1890000D03*
X12307000Y-2340000D03*
X11657000Y-2340000D03*
D20*
X6376500Y-2000000D03*
D21*
X6122500Y-2000000D03*
D19*
X12307000Y-1118000D03*
X11657000Y-1118000D03*
X12307000Y-1568000D03*
X11657000Y-1568000D03*
D17*
X5255000Y-4006000D03*
D18*
X5001000Y-4006000D03*
X4747000Y-4006000D03*
X4493000Y-4006000D03*
X4239000Y-4006000D03*
X4239000Y-958000D03*
X4493000Y-958000D03*
X4747000Y-958000D03*
X5001000Y-958000D03*
X5255000Y-958000D03*
D20*
X6376500Y-2900000D03*
D21*
X6122500Y-2900000D03*
D17*
X2817000Y-4007000D03*
D18*
X2563000Y-4007000D03*
X2309000Y-4007000D03*
X2055000Y-4007000D03*
X1801000Y-4007000D03*
X1801000Y-959000D03*
X2055000Y-959000D03*
X2309000Y-959000D03*
X2563000Y-959000D03*
X2817000Y-959000D03*
D19*
X11661000Y-3431000D03*
X12311000Y-3431000D03*
X12311000Y-3881000D03*
X11661000Y-3881000D03*
D17*
X10697000Y-4008000D03*
D18*
X10443000Y-4008000D03*
X10189000Y-4008000D03*
X9935000Y-4008000D03*
X9681000Y-4008000D03*
X9681000Y-960000D03*
X9935000Y-960000D03*
X10189000Y-960000D03*
X10443000Y-960000D03*
X10697000Y-960000D03*
D22*
X9449960Y-2244550D03*
X884000Y-4386000D03*
X9322000Y-1880000D03*
X9259117Y-2992665D03*
X5884000Y-4379000D03*
X4709000Y-4677000D03*
X10096000Y-1900000D03*
X3426000Y-4384000D03*
X9968000Y-4672000D03*
X9942500Y-3042500D03*
X3294000Y-4583000D03*
X11354000Y-4414000D03*
X2640000Y-1240000D03*
X8654000Y-1283000D03*
X8316550Y-2711892D03*
X8124000Y-2929000D03*
X8769000Y-4605000D03*
X7673430Y-1894110D03*
X6081500Y-1446000D03*
X9575000Y-3055000D03*
X537380Y-2494000D03*
X6800000Y-1100000D03*
X930000Y-4761000D03*
X8773200Y-1884550D03*
X5752000Y-4578000D03*
X9255500Y-1375500D03*
X11222000Y-4613000D03*
X10024000Y-3203000D03*
X7972450Y-2231000D03*
X4891000Y-3216250D03*
X10415000Y-1896000D03*
X1504000Y-4920000D03*
X9572600Y-1851000D03*
X7932000Y-3304000D03*
X7435000Y-3226000D03*
X2355000Y-4570000D03*
X5600000Y-1100000D03*
X1633380Y-2498000D03*
X5469000Y-3229000D03*
X5469000Y-4170000D03*
X11367000Y-2702000D03*
X11268450Y-2499000D03*
X10313000Y-3841450D03*
X11156000Y-2280000D03*
X11170000Y-2150000D03*
X11097000Y-2012000D03*
X11032000Y-2936000D03*
X11105000Y-3027000D03*
X8661758Y-1882729D03*
X9739000Y-2053000D03*
X5120000Y-4449050D03*
X2173000Y-4349000D03*
X2216000Y-3389000D03*
X4614901Y-3630050D03*
X8851300Y-3146876D03*
X4608000Y-4344000D03*
X8277000Y-3613000D03*
X8955067Y-3189058D03*
X7972350Y-4272110D03*
X9080498Y-3769422D03*
X9106000Y-4380000D03*
X9772460Y-2202000D03*
X8487195Y-1895550D03*
X8383000Y-1899000D03*
X9749000Y-2308000D03*
X8787799Y-2310201D03*
X9747063Y-2428296D03*
X6398000Y-1441000D03*
X9733290Y-2527293D03*
X9081000Y-2390000D03*
X9222000Y-3128000D03*
X9474000Y-3225000D03*
X9727450Y-2627073D03*
X9077000Y-2499000D03*
X3642000Y-3579000D03*
X3934000Y-3475550D03*
X9073141Y-2705600D03*
X10006000Y-1554000D03*
X10099000Y-2617000D03*
X8726623Y-2715163D03*
X8121350Y-4482160D03*
X9496000Y-2335000D03*
X8168000Y-1580000D03*
X8618817Y-2695183D03*
X10112000Y-2881000D03*
X9505992Y-2663519D03*
X9793000Y-2738000D03*
X11475000Y-2577000D03*
X9665550Y-2772450D03*
X9074003Y-2605653D03*
X10558000Y-4480000D03*
X9757000Y-3025000D03*
X8661450Y-3101865D03*
X11247000Y-1791000D03*
X10842000Y-3769000D03*
X2665000Y-4444000D03*
X8557000Y-3058000D03*
X8486000Y-4217000D03*
M02*
