G04 #@! TF.GenerationSoftware,KiCad,Pcbnew,6.0.11-2627ca5db0~126~ubuntu22.04.1*
G04 #@! TF.CreationDate,2023-10-21T07:57:24+01:00*
G04 #@! TF.ProjectId,LEDClock,4c454443-6c6f-4636-9b2e-6b696361645f,rev?*
G04 #@! TF.SameCoordinates,PX44794c0PY22243c0*
G04 #@! TF.FileFunction,Soldermask,Top*
G04 #@! TF.FilePolarity,Negative*
%FSLAX45Y45*%
G04 Gerber Fmt 4.5, Leading zero omitted, Abs format (unit mm)*
G04 Created by KiCad (PCBNEW 6.0.11-2627ca5db0~126~ubuntu22.04.1) date 2023-10-21 07:57:24*
%MOMM*%
%LPD*%
G01*
G04 APERTURE LIST*
G04 Aperture macros list*
%AMRoundRect*
0 Rectangle with rounded corners*
0 $1 Rounding radius*
0 $2 $3 $4 $5 $6 $7 $8 $9 X,Y pos of 4 corners*
0 Add a 4 corners polygon primitive as box body*
4,1,4,$2,$3,$4,$5,$6,$7,$8,$9,$2,$3,0*
0 Add four circle primitives for the rounded corners*
1,1,$1+$1,$2,$3*
1,1,$1+$1,$4,$5*
1,1,$1+$1,$6,$7*
1,1,$1+$1,$8,$9*
0 Add four rect primitives between the rounded corners*
20,1,$1+$1,$2,$3,$4,$5,0*
20,1,$1+$1,$4,$5,$6,$7,0*
20,1,$1+$1,$6,$7,$8,$9,0*
20,1,$1+$1,$8,$9,$2,$3,0*%
%AMFreePoly0*
4,1,9,3.862500,-0.866500,0.737500,-0.866500,0.737500,-0.450000,-0.737500,-0.450000,-0.737500,0.450000,0.737500,0.450000,0.737500,0.866500,3.862500,0.866500,3.862500,-0.866500,3.862500,-0.866500,$1*%
G04 Aperture macros list end*
%ADD10RoundRect,0.062500X-0.062500X0.675000X-0.062500X-0.675000X0.062500X-0.675000X0.062500X0.675000X0*%
%ADD11RoundRect,0.062500X-0.675000X0.062500X-0.675000X-0.062500X0.675000X-0.062500X0.675000X0.062500X0*%
%ADD12RoundRect,0.249999X0.450001X0.425001X-0.450001X0.425001X-0.450001X-0.425001X0.450001X-0.425001X0*%
%ADD13R,0.450000X1.500000*%
%ADD14O,1.800000X1.100000*%
%ADD15O,2.200000X1.100000*%
%ADD16R,0.900000X1.300000*%
%ADD17FreePoly0,90.000000*%
%ADD18RoundRect,0.225000X-0.225000X-0.250000X0.225000X-0.250000X0.225000X0.250000X-0.225000X0.250000X0*%
%ADD19C,1.000000*%
%ADD20RoundRect,0.218750X0.218750X0.256250X-0.218750X0.256250X-0.218750X-0.256250X0.218750X-0.256250X0*%
%ADD21R,4.000000X1.500000*%
%ADD22RoundRect,0.200000X-0.200000X-0.275000X0.200000X-0.275000X0.200000X0.275000X-0.200000X0.275000X0*%
%ADD23R,0.600000X0.450000*%
%ADD24RoundRect,0.150000X-0.587500X-0.150000X0.587500X-0.150000X0.587500X0.150000X-0.587500X0.150000X0*%
%ADD25R,2.000000X2.400000*%
%ADD26C,3.200000*%
%ADD27R,1.651000X1.651000*%
%ADD28RoundRect,0.200000X0.200000X0.275000X-0.200000X0.275000X-0.200000X-0.275000X0.200000X-0.275000X0*%
%ADD29RoundRect,0.225000X0.225000X0.250000X-0.225000X0.250000X-0.225000X-0.250000X0.225000X-0.250000X0*%
%ADD30RoundRect,0.250000X-0.620000X-0.845000X0.620000X-0.845000X0.620000X0.845000X-0.620000X0.845000X0*%
%ADD31O,1.740000X2.190000*%
%ADD32RoundRect,0.250000X-0.450000X-0.425000X0.450000X-0.425000X0.450000X0.425000X-0.450000X0.425000X0*%
%ADD33RoundRect,0.250000X0.450000X0.425000X-0.450000X0.425000X-0.450000X-0.425000X0.450000X-0.425000X0*%
%ADD34R,5.080000X5.080000*%
%ADD35R,0.700000X1.400000*%
%ADD36RoundRect,0.150000X-0.725000X-0.150000X0.725000X-0.150000X0.725000X0.150000X-0.725000X0.150000X0*%
%ADD37R,1.500000X1.500000*%
%ADD38C,1.500000*%
%ADD39C,2.000000*%
%ADD40R,1.800000X1.800000*%
%ADD41C,1.800000*%
%ADD42C,0.800000*%
G04 APERTURE END LIST*
D10*
X9169000Y-2075750D03*
X9119000Y-2075750D03*
X9069000Y-2075750D03*
X9019000Y-2075750D03*
X8969000Y-2075750D03*
X8919000Y-2075750D03*
X8869000Y-2075750D03*
X8819000Y-2075750D03*
X8769000Y-2075750D03*
X8719000Y-2075750D03*
X8669000Y-2075750D03*
X8619000Y-2075750D03*
D11*
X8477750Y-2217000D03*
X8477750Y-2267000D03*
X8477750Y-2317000D03*
X8477750Y-2367000D03*
X8477750Y-2417000D03*
X8477750Y-2467000D03*
X8477750Y-2517000D03*
X8477750Y-2567000D03*
X8477750Y-2617000D03*
X8477750Y-2667000D03*
X8477750Y-2717000D03*
X8477750Y-2767000D03*
D10*
X8619000Y-2908250D03*
X8669000Y-2908250D03*
X8719000Y-2908250D03*
X8769000Y-2908250D03*
X8819000Y-2908250D03*
X8869000Y-2908250D03*
X8919000Y-2908250D03*
X8969000Y-2908250D03*
X9019000Y-2908250D03*
X9069000Y-2908250D03*
X9119000Y-2908250D03*
X9169000Y-2908250D03*
D11*
X9310250Y-2767000D03*
X9310250Y-2717000D03*
X9310250Y-2667000D03*
X9310250Y-2617000D03*
X9310250Y-2567000D03*
X9310250Y-2517000D03*
X9310250Y-2467000D03*
X9310250Y-2417000D03*
X9310250Y-2367000D03*
X9310250Y-2317000D03*
X9310250Y-2267000D03*
X9310250Y-2217000D03*
D12*
X1269000Y-4389000D03*
X999000Y-4389000D03*
D13*
X9335000Y-3427500D03*
X9400000Y-3427500D03*
X9465000Y-3427500D03*
X9530000Y-3427500D03*
X9595000Y-3427500D03*
D14*
X9745000Y-3402500D03*
X9185000Y-3402500D03*
D15*
X9465000Y-3617500D03*
D16*
X1504000Y-4803750D03*
D17*
X1654000Y-4795000D03*
D16*
X1804000Y-4803750D03*
D18*
X1995000Y-4570000D03*
X2150000Y-4570000D03*
D19*
X2002000Y-4253000D03*
D20*
X8850000Y-3498000D03*
X8692500Y-3498000D03*
D21*
X7180000Y-3035000D03*
X7180000Y-1980000D03*
D22*
X6182500Y-2540000D03*
X6347500Y-2540000D03*
D23*
X8259000Y-4767000D03*
X8049000Y-4767000D03*
D22*
X10178500Y-4385000D03*
X10343500Y-4385000D03*
D24*
X6210750Y-1254000D03*
X6210750Y-1444000D03*
X6398250Y-1349000D03*
D22*
X10717500Y-2675000D03*
X10882500Y-2675000D03*
D18*
X5464500Y-4582000D03*
X5619500Y-4582000D03*
D25*
X8835000Y-1583000D03*
X8465000Y-1583000D03*
D26*
X400000Y-4600000D03*
D27*
X698760Y-2498000D03*
X1476000Y-2498000D03*
D28*
X8375500Y-2043000D03*
X8210500Y-2043000D03*
D26*
X6250000Y-400000D03*
D23*
X10460000Y-3679000D03*
X10250000Y-3679000D03*
D24*
X10291500Y-1703000D03*
X10291500Y-1893000D03*
X10479000Y-1798000D03*
D18*
X8051500Y-2232000D03*
X8206500Y-2232000D03*
X10942500Y-4609000D03*
X11097500Y-4609000D03*
D24*
X8092600Y-4382110D03*
X8092600Y-4572110D03*
X8280100Y-4477110D03*
D22*
X9417500Y-2030000D03*
X9582500Y-2030000D03*
D29*
X10452500Y-3136000D03*
X10297500Y-3136000D03*
D30*
X6741000Y-4622000D03*
D31*
X6995000Y-4622000D03*
X7249000Y-4622000D03*
X7503000Y-4622000D03*
D22*
X10717500Y-2325000D03*
X10882500Y-2325000D03*
D18*
X9100500Y-1280000D03*
X9255500Y-1280000D03*
D26*
X400000Y-400000D03*
D22*
X10717500Y-2850000D03*
X10882500Y-2850000D03*
X9937500Y-1706000D03*
X10102500Y-1706000D03*
D29*
X2507500Y-1240000D03*
X2352500Y-1240000D03*
D22*
X1977500Y-1240000D03*
X2142500Y-1240000D03*
D18*
X8410000Y-1283000D03*
X8565000Y-1283000D03*
D22*
X10717500Y-1975000D03*
X10882500Y-1975000D03*
D28*
X7237500Y-1770000D03*
X7072500Y-1770000D03*
D22*
X10717500Y-2150000D03*
X10882500Y-2150000D03*
X10717500Y-2500000D03*
X10882500Y-2500000D03*
D32*
X10943250Y-4416000D03*
X11213250Y-4416000D03*
D33*
X5276750Y-3219250D03*
X5006750Y-3219250D03*
D29*
X9575000Y-2940000D03*
X9420000Y-2940000D03*
D22*
X7072500Y-1580000D03*
X7237500Y-1580000D03*
D28*
X6373000Y-1615000D03*
X6208000Y-1615000D03*
D22*
X8361750Y-3323000D03*
X8526750Y-3323000D03*
X10717500Y-3025000D03*
X10882500Y-3025000D03*
D29*
X8897500Y-1283000D03*
X8742500Y-1283000D03*
D30*
X3664000Y-4624000D03*
D31*
X3918000Y-4624000D03*
X4172000Y-4624000D03*
D30*
X9354000Y-4659000D03*
D31*
X9608000Y-4659000D03*
D22*
X7752850Y-4380110D03*
X7917850Y-4380110D03*
D34*
X1087000Y-1215840D03*
X1087000Y-3778700D03*
D32*
X5468000Y-4381000D03*
X5738000Y-4381000D03*
D24*
X2613500Y-4350000D03*
X2613500Y-4540000D03*
X2801000Y-4445000D03*
D19*
X2014000Y-4808000D03*
D28*
X8017500Y-1580000D03*
X7852500Y-1580000D03*
D22*
X4712500Y-4347000D03*
X4877500Y-4347000D03*
X2267500Y-4352000D03*
X2432500Y-4352000D03*
D24*
X7466250Y-1580000D03*
X7466250Y-1770000D03*
X7653750Y-1675000D03*
D18*
X8212500Y-2930000D03*
X8367500Y-2930000D03*
D24*
X5063250Y-4349000D03*
X5063250Y-4539000D03*
X5250750Y-4444000D03*
D18*
X8502850Y-4608110D03*
X8657850Y-4608110D03*
D26*
X12100000Y-4600000D03*
D18*
X9098500Y-1468000D03*
X9253500Y-1468000D03*
D35*
X9248000Y-1672000D03*
X9108000Y-1672000D03*
D23*
X1785000Y-1240000D03*
X1575000Y-1240000D03*
D26*
X12100000Y-400000D03*
D29*
X7332500Y-3226000D03*
X7177500Y-3226000D03*
D18*
X3015500Y-4583000D03*
X3170500Y-4583000D03*
D32*
X3015250Y-4384000D03*
X3285250Y-4384000D03*
D22*
X6182500Y-2375000D03*
X6347500Y-2375000D03*
X8366750Y-3498000D03*
X8531750Y-3498000D03*
D24*
X10527250Y-4387000D03*
X10527250Y-4577000D03*
X10714750Y-4482000D03*
D26*
X6250000Y-4600000D03*
D20*
X8852000Y-3322000D03*
X8694500Y-3322000D03*
D36*
X9942500Y-2055500D03*
X9942500Y-2182500D03*
X9942500Y-2309500D03*
X9942500Y-2436500D03*
X9942500Y-2563500D03*
X9942500Y-2690500D03*
X9942500Y-2817500D03*
X9942500Y-2944500D03*
X10457500Y-2944500D03*
X10457500Y-2817500D03*
X10457500Y-2690500D03*
X10457500Y-2563500D03*
X10457500Y-2436500D03*
X10457500Y-2309500D03*
X10457500Y-2182500D03*
X10457500Y-2055500D03*
D22*
X10717000Y-1795000D03*
X10882000Y-1795000D03*
D32*
X8503600Y-4413110D03*
X8773600Y-4413110D03*
D37*
X8258000Y-4008000D03*
D38*
X8004000Y-4008000D03*
X7750000Y-4008000D03*
X7496000Y-4008000D03*
X7242000Y-4008000D03*
X7242000Y-960000D03*
X7496000Y-960000D03*
X7750000Y-960000D03*
X8004000Y-960000D03*
X8258000Y-960000D03*
D39*
X12308000Y-2661000D03*
X11658000Y-2661000D03*
X12308000Y-3111000D03*
X11658000Y-3111000D03*
X12307000Y-1890000D03*
X11657000Y-1890000D03*
X12307000Y-2340000D03*
X11657000Y-2340000D03*
D40*
X6376500Y-2000000D03*
D41*
X6122500Y-2000000D03*
D39*
X12307000Y-1118000D03*
X11657000Y-1118000D03*
X12307000Y-1568000D03*
X11657000Y-1568000D03*
D37*
X5255000Y-4006000D03*
D38*
X5001000Y-4006000D03*
X4747000Y-4006000D03*
X4493000Y-4006000D03*
X4239000Y-4006000D03*
X4239000Y-958000D03*
X4493000Y-958000D03*
X4747000Y-958000D03*
X5001000Y-958000D03*
X5255000Y-958000D03*
D40*
X6376500Y-2900000D03*
D41*
X6122500Y-2900000D03*
D37*
X2817000Y-4007000D03*
D38*
X2563000Y-4007000D03*
X2309000Y-4007000D03*
X2055000Y-4007000D03*
X1801000Y-4007000D03*
X1801000Y-959000D03*
X2055000Y-959000D03*
X2309000Y-959000D03*
X2563000Y-959000D03*
X2817000Y-959000D03*
D39*
X11661000Y-3431000D03*
X12311000Y-3431000D03*
X12311000Y-3881000D03*
X11661000Y-3881000D03*
D37*
X10697000Y-4008000D03*
D38*
X10443000Y-4008000D03*
X10189000Y-4008000D03*
X9935000Y-4008000D03*
X9681000Y-4008000D03*
X9681000Y-960000D03*
X9935000Y-960000D03*
X10189000Y-960000D03*
X10443000Y-960000D03*
X10697000Y-960000D03*
D42*
X9449960Y-2244550D03*
X884000Y-4386000D03*
X9322000Y-1880000D03*
X9259117Y-2992665D03*
X5884000Y-4379000D03*
X4709000Y-4677000D03*
X10096000Y-1900000D03*
X3426000Y-4384000D03*
X9968000Y-4672000D03*
X9942500Y-3042500D03*
X3294000Y-4583000D03*
X11354000Y-4414000D03*
X2640000Y-1240000D03*
X8654000Y-1283000D03*
X8316550Y-2711892D03*
X8124000Y-2929000D03*
X8769000Y-4605000D03*
X7673430Y-1894110D03*
X6081500Y-1446000D03*
X9575000Y-3055000D03*
X537380Y-2494000D03*
X6800000Y-1100000D03*
X930000Y-4761000D03*
X8773200Y-1884550D03*
X5752000Y-4578000D03*
X9255500Y-1375500D03*
X11222000Y-4613000D03*
X10024000Y-3203000D03*
X7972450Y-2231000D03*
X4891000Y-3216250D03*
X10415000Y-1896000D03*
X1504000Y-4920000D03*
X9572600Y-1851000D03*
X7932000Y-3304000D03*
X7435000Y-3226000D03*
X2355000Y-4570000D03*
X5600000Y-1100000D03*
X1633380Y-2498000D03*
X5469000Y-3229000D03*
X5469000Y-4170000D03*
X11367000Y-2702000D03*
X11268450Y-2499000D03*
X10313000Y-3841450D03*
X11156000Y-2280000D03*
X11170000Y-2150000D03*
X11097000Y-2012000D03*
X11032000Y-2936000D03*
X11105000Y-3027000D03*
X8661758Y-1882729D03*
X9739000Y-2053000D03*
X5120000Y-4449050D03*
X2173000Y-4349000D03*
X2216000Y-3389000D03*
X4614901Y-3630050D03*
X8851300Y-3146876D03*
X4608000Y-4344000D03*
X8277000Y-3613000D03*
X8955067Y-3189058D03*
X7972350Y-4272110D03*
X9080498Y-3769422D03*
X9106000Y-4380000D03*
X9772460Y-2202000D03*
X8487195Y-1895550D03*
X8383000Y-1899000D03*
X9749000Y-2308000D03*
X8787799Y-2310201D03*
X9747063Y-2428296D03*
X6398000Y-1441000D03*
X9733290Y-2527293D03*
X9081000Y-2390000D03*
X9222000Y-3128000D03*
X9474000Y-3225000D03*
X9727450Y-2627073D03*
X9077000Y-2499000D03*
X3642000Y-3579000D03*
X3934000Y-3475550D03*
X9073141Y-2705600D03*
X10006000Y-1554000D03*
X10099000Y-2617000D03*
X8726623Y-2715163D03*
X8121350Y-4482160D03*
X9496000Y-2335000D03*
X8168000Y-1580000D03*
X8618817Y-2695183D03*
X10112000Y-2881000D03*
X9505992Y-2663519D03*
X9793000Y-2738000D03*
X11475000Y-2577000D03*
X9665550Y-2772450D03*
X9074003Y-2605653D03*
X10558000Y-4480000D03*
X9757000Y-3025000D03*
X8661450Y-3101865D03*
X11247000Y-1791000D03*
X10842000Y-3769000D03*
X2665000Y-4444000D03*
X8557000Y-3058000D03*
X8486000Y-4217000D03*
M02*
