G04 #@! TF.GenerationSoftware,KiCad,Pcbnew,6.0.11-2627ca5db0~126~ubuntu22.04.1*
G04 #@! TF.CreationDate,2023-10-21T07:57:24+01:00*
G04 #@! TF.ProjectId,LEDClock,4c454443-6c6f-4636-9b2e-6b696361645f,rev?*
G04 #@! TF.SameCoordinates,PX44794c0PY22243c0*
G04 #@! TF.FileFunction,Soldermask,Bot*
G04 #@! TF.FilePolarity,Negative*
%FSLAX45Y45*%
G04 Gerber Fmt 4.5, Leading zero omitted, Abs format (unit mm)*
G04 Created by KiCad (PCBNEW 6.0.11-2627ca5db0~126~ubuntu22.04.1) date 2023-10-21 07:57:24*
%MOMM*%
%LPD*%
G01*
G04 APERTURE LIST*
G04 Aperture macros list*
%AMRoundRect*
0 Rectangle with rounded corners*
0 $1 Rounding radius*
0 $2 $3 $4 $5 $6 $7 $8 $9 X,Y pos of 4 corners*
0 Add a 4 corners polygon primitive as box body*
4,1,4,$2,$3,$4,$5,$6,$7,$8,$9,$2,$3,0*
0 Add four circle primitives for the rounded corners*
1,1,$1+$1,$2,$3*
1,1,$1+$1,$4,$5*
1,1,$1+$1,$6,$7*
1,1,$1+$1,$8,$9*
0 Add four rect primitives between the rounded corners*
20,1,$1+$1,$2,$3,$4,$5,0*
20,1,$1+$1,$4,$5,$6,$7,0*
20,1,$1+$1,$6,$7,$8,$9,0*
20,1,$1+$1,$8,$9,$2,$3,0*%
G04 Aperture macros list end*
%ADD10O,1.800000X1.100000*%
%ADD11O,2.200000X1.100000*%
%ADD12C,3.200000*%
%ADD13RoundRect,0.250000X-0.620000X-0.845000X0.620000X-0.845000X0.620000X0.845000X-0.620000X0.845000X0*%
%ADD14O,1.740000X2.190000*%
%ADD15R,1.500000X1.500000*%
%ADD16C,1.500000*%
%ADD17C,2.000000*%
%ADD18R,1.800000X1.800000*%
%ADD19C,1.800000*%
%ADD20C,0.800000*%
G04 APERTURE END LIST*
D10*
X9745000Y-3402500D03*
X9185000Y-3402500D03*
D11*
X9465000Y-3617500D03*
D12*
X400000Y-4600000D03*
X6250000Y-400000D03*
D13*
X6741000Y-4622000D03*
D14*
X6995000Y-4622000D03*
X7249000Y-4622000D03*
X7503000Y-4622000D03*
D12*
X400000Y-400000D03*
D13*
X3664000Y-4624000D03*
D14*
X3918000Y-4624000D03*
X4172000Y-4624000D03*
D13*
X9354000Y-4659000D03*
D14*
X9608000Y-4659000D03*
D12*
X12100000Y-4600000D03*
X12100000Y-400000D03*
X6250000Y-4600000D03*
D15*
X8258000Y-4008000D03*
D16*
X8004000Y-4008000D03*
X7750000Y-4008000D03*
X7496000Y-4008000D03*
X7242000Y-4008000D03*
X7242000Y-960000D03*
X7496000Y-960000D03*
X7750000Y-960000D03*
X8004000Y-960000D03*
X8258000Y-960000D03*
D17*
X12308000Y-2661000D03*
X11658000Y-2661000D03*
X12308000Y-3111000D03*
X11658000Y-3111000D03*
X12307000Y-1890000D03*
X11657000Y-1890000D03*
X12307000Y-2340000D03*
X11657000Y-2340000D03*
D18*
X6376500Y-2000000D03*
D19*
X6122500Y-2000000D03*
D17*
X12307000Y-1118000D03*
X11657000Y-1118000D03*
X12307000Y-1568000D03*
X11657000Y-1568000D03*
D15*
X5255000Y-4006000D03*
D16*
X5001000Y-4006000D03*
X4747000Y-4006000D03*
X4493000Y-4006000D03*
X4239000Y-4006000D03*
X4239000Y-958000D03*
X4493000Y-958000D03*
X4747000Y-958000D03*
X5001000Y-958000D03*
X5255000Y-958000D03*
D18*
X6376500Y-2900000D03*
D19*
X6122500Y-2900000D03*
D15*
X2817000Y-4007000D03*
D16*
X2563000Y-4007000D03*
X2309000Y-4007000D03*
X2055000Y-4007000D03*
X1801000Y-4007000D03*
X1801000Y-959000D03*
X2055000Y-959000D03*
X2309000Y-959000D03*
X2563000Y-959000D03*
X2817000Y-959000D03*
D17*
X11661000Y-3431000D03*
X12311000Y-3431000D03*
X12311000Y-3881000D03*
X11661000Y-3881000D03*
D15*
X10697000Y-4008000D03*
D16*
X10443000Y-4008000D03*
X10189000Y-4008000D03*
X9935000Y-4008000D03*
X9681000Y-4008000D03*
X9681000Y-960000D03*
X9935000Y-960000D03*
X10189000Y-960000D03*
X10443000Y-960000D03*
X10697000Y-960000D03*
D20*
X9449960Y-2244550D03*
X884000Y-4386000D03*
X9322000Y-1880000D03*
X9259117Y-2992665D03*
X5884000Y-4379000D03*
X4709000Y-4677000D03*
X10096000Y-1900000D03*
X3426000Y-4384000D03*
X9968000Y-4672000D03*
X9942500Y-3042500D03*
X3294000Y-4583000D03*
X11354000Y-4414000D03*
X2640000Y-1240000D03*
X8654000Y-1283000D03*
X8316550Y-2711892D03*
X8124000Y-2929000D03*
X8769000Y-4605000D03*
X7673430Y-1894110D03*
X6081500Y-1446000D03*
X9575000Y-3055000D03*
X537380Y-2494000D03*
X6800000Y-1100000D03*
X930000Y-4761000D03*
X8773200Y-1884550D03*
X5752000Y-4578000D03*
X9255500Y-1375500D03*
X11222000Y-4613000D03*
X10024000Y-3203000D03*
X7972450Y-2231000D03*
X4891000Y-3216250D03*
X10415000Y-1896000D03*
X1504000Y-4920000D03*
X9572600Y-1851000D03*
X7932000Y-3304000D03*
X7435000Y-3226000D03*
X2355000Y-4570000D03*
X5600000Y-1100000D03*
X1633380Y-2498000D03*
X5469000Y-3229000D03*
X5469000Y-4170000D03*
X11367000Y-2702000D03*
X11268450Y-2499000D03*
X10313000Y-3841450D03*
X11156000Y-2280000D03*
X11170000Y-2150000D03*
X11097000Y-2012000D03*
X11032000Y-2936000D03*
X11105000Y-3027000D03*
X8661758Y-1882729D03*
X9739000Y-2053000D03*
X5120000Y-4449050D03*
X2173000Y-4349000D03*
X2216000Y-3389000D03*
X4614901Y-3630050D03*
X8851300Y-3146876D03*
X4608000Y-4344000D03*
X8277000Y-3613000D03*
X8955067Y-3189058D03*
X7972350Y-4272110D03*
X9080498Y-3769422D03*
X9106000Y-4380000D03*
X9772460Y-2202000D03*
X8487195Y-1895550D03*
X8383000Y-1899000D03*
X9749000Y-2308000D03*
X8787799Y-2310201D03*
X9747063Y-2428296D03*
X6398000Y-1441000D03*
X9733290Y-2527293D03*
X9081000Y-2390000D03*
X9222000Y-3128000D03*
X9474000Y-3225000D03*
X9727450Y-2627073D03*
X9077000Y-2499000D03*
X3642000Y-3579000D03*
X3934000Y-3475550D03*
X9073141Y-2705600D03*
X10006000Y-1554000D03*
X10099000Y-2617000D03*
X8726623Y-2715163D03*
X8121350Y-4482160D03*
X9496000Y-2335000D03*
X8168000Y-1580000D03*
X8618817Y-2695183D03*
X10112000Y-2881000D03*
X9505992Y-2663519D03*
X9793000Y-2738000D03*
X11475000Y-2577000D03*
X9665550Y-2772450D03*
X9074003Y-2605653D03*
X10558000Y-4480000D03*
X9757000Y-3025000D03*
X8661450Y-3101865D03*
X11247000Y-1791000D03*
X10842000Y-3769000D03*
X2665000Y-4444000D03*
X8557000Y-3058000D03*
X8486000Y-4217000D03*
M02*
