%TF.GenerationSoftware,KiCad,Pcbnew,6.0.11-2627ca5db0~126~ubuntu22.04.1*%
%TF.CreationDate,2023-10-21T07:57:17+01:00*%
%TF.ProjectId,LEDClock,4c454443-6c6f-4636-9b2e-6b696361645f,rev?*%
%TF.SameCoordinates,PX44794c0PY22243c0*%
%TF.FileFunction,Drillmap*%
%TF.FilePolarity,Positive*%
%FSLAX45Y45*%
G04 Gerber Fmt 4.5, Leading zero omitted, Abs format (unit mm)*
G04 Created by KiCad (PCBNEW 6.0.11-2627ca5db0~126~ubuntu22.04.1) date 2023-10-21 07:57:17*
%MOMM*%
%LPD*%
G01*
G04 APERTURE LIST*
%ADD10C,0.100000*%
%ADD11C,0.200000*%
%ADD12C,0.320000*%
G04 APERTURE END LIST*
D10*
X12500000Y-5000000D02*
X0Y-5000000D01*
X0Y-5000000D02*
X0Y0D01*
X12500000Y0D02*
X12500000Y-5000000D01*
X12500000Y0D02*
X0Y0D01*
D11*
D12*
X240000Y-240000D02*
X560000Y-560000D01*
X560000Y-240000D02*
X240000Y-560000D01*
X240000Y-4440000D02*
X560000Y-4760000D01*
X560000Y-4440000D02*
X240000Y-4760000D01*
X6090000Y-240000D02*
X6410000Y-560000D01*
X6410000Y-240000D02*
X6090000Y-560000D01*
X6090000Y-4440000D02*
X6410000Y-4760000D01*
X6410000Y-4440000D02*
X6090000Y-4760000D01*
X11940000Y-240000D02*
X12260000Y-560000D01*
X12260000Y-240000D02*
X11940000Y-560000D01*
X11940000Y-4440000D02*
X12260000Y-4760000D01*
X12260000Y-4440000D02*
X11940000Y-4760000D01*
D11*
X252619Y-5315476D02*
X252619Y-5115476D01*
X300238Y-5115476D01*
X328810Y-5125000D01*
X347857Y-5144048D01*
X357381Y-5163095D01*
X366905Y-5201190D01*
X366905Y-5229762D01*
X357381Y-5267857D01*
X347857Y-5286905D01*
X328810Y-5305952D01*
X300238Y-5315476D01*
X252619Y-5315476D01*
X452619Y-5315476D02*
X452619Y-5182143D01*
X452619Y-5220238D02*
X462143Y-5201190D01*
X471667Y-5191667D01*
X490714Y-5182143D01*
X509762Y-5182143D01*
X576429Y-5315476D02*
X576429Y-5182143D01*
X576429Y-5115476D02*
X566905Y-5125000D01*
X576429Y-5134524D01*
X585952Y-5125000D01*
X576429Y-5115476D01*
X576429Y-5134524D01*
X700238Y-5315476D02*
X681190Y-5305952D01*
X671667Y-5286905D01*
X671667Y-5115476D01*
X805000Y-5315476D02*
X785952Y-5305952D01*
X776428Y-5286905D01*
X776428Y-5115476D01*
X1033571Y-5315476D02*
X1033571Y-5115476D01*
X1100238Y-5258333D01*
X1166905Y-5115476D01*
X1166905Y-5315476D01*
X1347857Y-5315476D02*
X1347857Y-5210714D01*
X1338333Y-5191667D01*
X1319286Y-5182143D01*
X1281190Y-5182143D01*
X1262143Y-5191667D01*
X1347857Y-5305952D02*
X1328810Y-5315476D01*
X1281190Y-5315476D01*
X1262143Y-5305952D01*
X1252619Y-5286905D01*
X1252619Y-5267857D01*
X1262143Y-5248810D01*
X1281190Y-5239286D01*
X1328810Y-5239286D01*
X1347857Y-5229762D01*
X1443095Y-5182143D02*
X1443095Y-5382143D01*
X1443095Y-5191667D02*
X1462143Y-5182143D01*
X1500238Y-5182143D01*
X1519286Y-5191667D01*
X1528809Y-5201190D01*
X1538333Y-5220238D01*
X1538333Y-5277381D01*
X1528809Y-5296429D01*
X1519286Y-5305952D01*
X1500238Y-5315476D01*
X1462143Y-5315476D01*
X1443095Y-5305952D01*
X1624048Y-5296429D02*
X1633571Y-5305952D01*
X1624048Y-5315476D01*
X1614524Y-5305952D01*
X1624048Y-5296429D01*
X1624048Y-5315476D01*
X1624048Y-5191667D02*
X1633571Y-5201190D01*
X1624048Y-5210714D01*
X1614524Y-5201190D01*
X1624048Y-5191667D01*
X1624048Y-5210714D01*
X-205000Y-5545000D02*
X-5000Y-5745000D01*
X-5000Y-5545000D02*
X-205000Y-5745000D01*
X233571Y-5535476D02*
X357381Y-5535476D01*
X290714Y-5611667D01*
X319286Y-5611667D01*
X338333Y-5621190D01*
X347857Y-5630714D01*
X357381Y-5649762D01*
X357381Y-5697381D01*
X347857Y-5716428D01*
X338333Y-5725952D01*
X319286Y-5735476D01*
X262143Y-5735476D01*
X243095Y-5725952D01*
X233571Y-5716428D01*
X443095Y-5716428D02*
X452619Y-5725952D01*
X443095Y-5735476D01*
X433571Y-5725952D01*
X443095Y-5716428D01*
X443095Y-5735476D01*
X528810Y-5554524D02*
X538333Y-5545000D01*
X557381Y-5535476D01*
X605000Y-5535476D01*
X624048Y-5545000D01*
X633571Y-5554524D01*
X643095Y-5573571D01*
X643095Y-5592619D01*
X633571Y-5621190D01*
X519286Y-5735476D01*
X643095Y-5735476D01*
X766905Y-5535476D02*
X785952Y-5535476D01*
X805000Y-5545000D01*
X814524Y-5554524D01*
X824048Y-5573571D01*
X833571Y-5611667D01*
X833571Y-5659286D01*
X824048Y-5697381D01*
X814524Y-5716428D01*
X805000Y-5725952D01*
X785952Y-5735476D01*
X766905Y-5735476D01*
X747857Y-5725952D01*
X738333Y-5716428D01*
X728809Y-5697381D01*
X719286Y-5659286D01*
X719286Y-5611667D01*
X728809Y-5573571D01*
X738333Y-5554524D01*
X747857Y-5545000D01*
X766905Y-5535476D01*
X957381Y-5535476D02*
X976428Y-5535476D01*
X995476Y-5545000D01*
X1005000Y-5554524D01*
X1014524Y-5573571D01*
X1024048Y-5611667D01*
X1024048Y-5659286D01*
X1014524Y-5697381D01*
X1005000Y-5716428D01*
X995476Y-5725952D01*
X976428Y-5735476D01*
X957381Y-5735476D01*
X938333Y-5725952D01*
X928809Y-5716428D01*
X919286Y-5697381D01*
X909762Y-5659286D01*
X909762Y-5611667D01*
X919286Y-5573571D01*
X928809Y-5554524D01*
X938333Y-5545000D01*
X957381Y-5535476D01*
X1109762Y-5735476D02*
X1109762Y-5602143D01*
X1109762Y-5621190D02*
X1119286Y-5611667D01*
X1138333Y-5602143D01*
X1166905Y-5602143D01*
X1185952Y-5611667D01*
X1195476Y-5630714D01*
X1195476Y-5735476D01*
X1195476Y-5630714D02*
X1205000Y-5611667D01*
X1224048Y-5602143D01*
X1252619Y-5602143D01*
X1271667Y-5611667D01*
X1281190Y-5630714D01*
X1281190Y-5735476D01*
X1376429Y-5735476D02*
X1376429Y-5602143D01*
X1376429Y-5621190D02*
X1385952Y-5611667D01*
X1405000Y-5602143D01*
X1433571Y-5602143D01*
X1452619Y-5611667D01*
X1462143Y-5630714D01*
X1462143Y-5735476D01*
X1462143Y-5630714D02*
X1471667Y-5611667D01*
X1490714Y-5602143D01*
X1519286Y-5602143D01*
X1538333Y-5611667D01*
X1547857Y-5630714D01*
X1547857Y-5735476D01*
X1938333Y-5525952D02*
X1766905Y-5783095D01*
X2195476Y-5535476D02*
X2214524Y-5535476D01*
X2233571Y-5545000D01*
X2243095Y-5554524D01*
X2252619Y-5573571D01*
X2262143Y-5611667D01*
X2262143Y-5659286D01*
X2252619Y-5697381D01*
X2243095Y-5716428D01*
X2233571Y-5725952D01*
X2214524Y-5735476D01*
X2195476Y-5735476D01*
X2176429Y-5725952D01*
X2166905Y-5716428D01*
X2157381Y-5697381D01*
X2147857Y-5659286D01*
X2147857Y-5611667D01*
X2157381Y-5573571D01*
X2166905Y-5554524D01*
X2176429Y-5545000D01*
X2195476Y-5535476D01*
X2347857Y-5716428D02*
X2357381Y-5725952D01*
X2347857Y-5735476D01*
X2338333Y-5725952D01*
X2347857Y-5716428D01*
X2347857Y-5735476D01*
X2547857Y-5735476D02*
X2433571Y-5735476D01*
X2490714Y-5735476D02*
X2490714Y-5535476D01*
X2471667Y-5564048D01*
X2452619Y-5583095D01*
X2433571Y-5592619D01*
X2624048Y-5554524D02*
X2633571Y-5545000D01*
X2652619Y-5535476D01*
X2700238Y-5535476D01*
X2719286Y-5545000D01*
X2728810Y-5554524D01*
X2738333Y-5573571D01*
X2738333Y-5592619D01*
X2728810Y-5621190D01*
X2614524Y-5735476D01*
X2738333Y-5735476D01*
X2909762Y-5535476D02*
X2871667Y-5535476D01*
X2852619Y-5545000D01*
X2843095Y-5554524D01*
X2824048Y-5583095D01*
X2814524Y-5621190D01*
X2814524Y-5697381D01*
X2824048Y-5716428D01*
X2833571Y-5725952D01*
X2852619Y-5735476D01*
X2890714Y-5735476D01*
X2909762Y-5725952D01*
X2919286Y-5716428D01*
X2928809Y-5697381D01*
X2928809Y-5649762D01*
X2919286Y-5630714D01*
X2909762Y-5621190D01*
X2890714Y-5611667D01*
X2852619Y-5611667D01*
X2833571Y-5621190D01*
X2824048Y-5630714D01*
X2814524Y-5649762D01*
X3052619Y-5535476D02*
X3071667Y-5535476D01*
X3090714Y-5545000D01*
X3100238Y-5554524D01*
X3109762Y-5573571D01*
X3119286Y-5611667D01*
X3119286Y-5659286D01*
X3109762Y-5697381D01*
X3100238Y-5716428D01*
X3090714Y-5725952D01*
X3071667Y-5735476D01*
X3052619Y-5735476D01*
X3033571Y-5725952D01*
X3024048Y-5716428D01*
X3014524Y-5697381D01*
X3005000Y-5659286D01*
X3005000Y-5611667D01*
X3014524Y-5573571D01*
X3024048Y-5554524D01*
X3033571Y-5545000D01*
X3052619Y-5535476D01*
X3195476Y-5535476D02*
X3195476Y-5573571D01*
X3271667Y-5535476D02*
X3271667Y-5573571D01*
X3566905Y-5811667D02*
X3557381Y-5802143D01*
X3538333Y-5773571D01*
X3528809Y-5754524D01*
X3519286Y-5725952D01*
X3509762Y-5678333D01*
X3509762Y-5640238D01*
X3519286Y-5592619D01*
X3528809Y-5564048D01*
X3538333Y-5545000D01*
X3557381Y-5516429D01*
X3566905Y-5506905D01*
X3728809Y-5535476D02*
X3690714Y-5535476D01*
X3671667Y-5545000D01*
X3662143Y-5554524D01*
X3643095Y-5583095D01*
X3633571Y-5621190D01*
X3633571Y-5697381D01*
X3643095Y-5716428D01*
X3652619Y-5725952D01*
X3671667Y-5735476D01*
X3709762Y-5735476D01*
X3728809Y-5725952D01*
X3738333Y-5716428D01*
X3747857Y-5697381D01*
X3747857Y-5649762D01*
X3738333Y-5630714D01*
X3728809Y-5621190D01*
X3709762Y-5611667D01*
X3671667Y-5611667D01*
X3652619Y-5621190D01*
X3643095Y-5630714D01*
X3633571Y-5649762D01*
X3985952Y-5735476D02*
X3985952Y-5535476D01*
X4071667Y-5735476D02*
X4071667Y-5630714D01*
X4062143Y-5611667D01*
X4043095Y-5602143D01*
X4014524Y-5602143D01*
X3995476Y-5611667D01*
X3985952Y-5621190D01*
X4195476Y-5735476D02*
X4176428Y-5725952D01*
X4166905Y-5716428D01*
X4157381Y-5697381D01*
X4157381Y-5640238D01*
X4166905Y-5621190D01*
X4176428Y-5611667D01*
X4195476Y-5602143D01*
X4224048Y-5602143D01*
X4243095Y-5611667D01*
X4252619Y-5621190D01*
X4262143Y-5640238D01*
X4262143Y-5697381D01*
X4252619Y-5716428D01*
X4243095Y-5725952D01*
X4224048Y-5735476D01*
X4195476Y-5735476D01*
X4376429Y-5735476D02*
X4357381Y-5725952D01*
X4347857Y-5706905D01*
X4347857Y-5535476D01*
X4528810Y-5725952D02*
X4509762Y-5735476D01*
X4471667Y-5735476D01*
X4452619Y-5725952D01*
X4443095Y-5706905D01*
X4443095Y-5630714D01*
X4452619Y-5611667D01*
X4471667Y-5602143D01*
X4509762Y-5602143D01*
X4528810Y-5611667D01*
X4538333Y-5630714D01*
X4538333Y-5649762D01*
X4443095Y-5668809D01*
X4614524Y-5725952D02*
X4633571Y-5735476D01*
X4671667Y-5735476D01*
X4690714Y-5725952D01*
X4700238Y-5706905D01*
X4700238Y-5697381D01*
X4690714Y-5678333D01*
X4671667Y-5668809D01*
X4643095Y-5668809D01*
X4624048Y-5659286D01*
X4614524Y-5640238D01*
X4614524Y-5630714D01*
X4624048Y-5611667D01*
X4643095Y-5602143D01*
X4671667Y-5602143D01*
X4690714Y-5611667D01*
X4766905Y-5811667D02*
X4776429Y-5802143D01*
X4795476Y-5773571D01*
X4805000Y-5754524D01*
X4814524Y-5725952D01*
X4824048Y-5678333D01*
X4824048Y-5640238D01*
X4814524Y-5592619D01*
X4805000Y-5564048D01*
X4795476Y-5545000D01*
X4776429Y-5516429D01*
X4766905Y-5506905D01*
X5128810Y-5811667D02*
X5119286Y-5802143D01*
X5100238Y-5773571D01*
X5090714Y-5754524D01*
X5081190Y-5725952D01*
X5071667Y-5678333D01*
X5071667Y-5640238D01*
X5081190Y-5592619D01*
X5090714Y-5564048D01*
X5100238Y-5545000D01*
X5119286Y-5516429D01*
X5128810Y-5506905D01*
X5205000Y-5602143D02*
X5205000Y-5735476D01*
X5205000Y-5621190D02*
X5214524Y-5611667D01*
X5233571Y-5602143D01*
X5262143Y-5602143D01*
X5281190Y-5611667D01*
X5290714Y-5630714D01*
X5290714Y-5735476D01*
X5414524Y-5735476D02*
X5395476Y-5725952D01*
X5385952Y-5716428D01*
X5376429Y-5697381D01*
X5376429Y-5640238D01*
X5385952Y-5621190D01*
X5395476Y-5611667D01*
X5414524Y-5602143D01*
X5443095Y-5602143D01*
X5462143Y-5611667D01*
X5471667Y-5621190D01*
X5481190Y-5640238D01*
X5481190Y-5697381D01*
X5471667Y-5716428D01*
X5462143Y-5725952D01*
X5443095Y-5735476D01*
X5414524Y-5735476D01*
X5538333Y-5602143D02*
X5614524Y-5602143D01*
X5566905Y-5535476D02*
X5566905Y-5706905D01*
X5576429Y-5725952D01*
X5595476Y-5735476D01*
X5614524Y-5735476D01*
X5833571Y-5602143D02*
X5833571Y-5802143D01*
X5833571Y-5611667D02*
X5852619Y-5602143D01*
X5890714Y-5602143D01*
X5909762Y-5611667D01*
X5919286Y-5621190D01*
X5928809Y-5640238D01*
X5928809Y-5697381D01*
X5919286Y-5716428D01*
X5909762Y-5725952D01*
X5890714Y-5735476D01*
X5852619Y-5735476D01*
X5833571Y-5725952D01*
X6043095Y-5735476D02*
X6024048Y-5725952D01*
X6014524Y-5706905D01*
X6014524Y-5535476D01*
X6205000Y-5735476D02*
X6205000Y-5630714D01*
X6195476Y-5611667D01*
X6176428Y-5602143D01*
X6138333Y-5602143D01*
X6119286Y-5611667D01*
X6205000Y-5725952D02*
X6185952Y-5735476D01*
X6138333Y-5735476D01*
X6119286Y-5725952D01*
X6109762Y-5706905D01*
X6109762Y-5687857D01*
X6119286Y-5668809D01*
X6138333Y-5659286D01*
X6185952Y-5659286D01*
X6205000Y-5649762D01*
X6271667Y-5602143D02*
X6347857Y-5602143D01*
X6300238Y-5535476D02*
X6300238Y-5706905D01*
X6309762Y-5725952D01*
X6328809Y-5735476D01*
X6347857Y-5735476D01*
X6490714Y-5725952D02*
X6471667Y-5735476D01*
X6433571Y-5735476D01*
X6414524Y-5725952D01*
X6405000Y-5706905D01*
X6405000Y-5630714D01*
X6414524Y-5611667D01*
X6433571Y-5602143D01*
X6471667Y-5602143D01*
X6490714Y-5611667D01*
X6500238Y-5630714D01*
X6500238Y-5649762D01*
X6405000Y-5668809D01*
X6671667Y-5735476D02*
X6671667Y-5535476D01*
X6671667Y-5725952D02*
X6652619Y-5735476D01*
X6614524Y-5735476D01*
X6595476Y-5725952D01*
X6585952Y-5716428D01*
X6576428Y-5697381D01*
X6576428Y-5640238D01*
X6585952Y-5621190D01*
X6595476Y-5611667D01*
X6614524Y-5602143D01*
X6652619Y-5602143D01*
X6671667Y-5611667D01*
X6747857Y-5811667D02*
X6757381Y-5802143D01*
X6776428Y-5773571D01*
X6785952Y-5754524D01*
X6795476Y-5725952D01*
X6805000Y-5678333D01*
X6805000Y-5640238D01*
X6795476Y-5592619D01*
X6785952Y-5564048D01*
X6776428Y-5545000D01*
X6757381Y-5516429D01*
X6747857Y-5506905D01*
M02*
