M48
; DRILL file {KiCad 6.0.11-2627ca5db0~126~ubuntu22.04.1} date Sat 21 Oct 2023 07:57:43 BST
; FORMAT={-:-/ absolute / inch / decimal}
; #@! TF.CreationDate,2023-10-21T07:57:43+01:00
; #@! TF.GenerationSoftware,Kicad,Pcbnew,6.0.11-2627ca5db0~126~ubuntu22.04.1
; #@! TF.FileFunction,Plated,1,2,PTH
FMAT,2
INCH
; #@! TA.AperFunction,Plated,PTH,ViaDrill
T1C0.0157
; #@! TA.AperFunction,Plated,PTH,ViaDrill
T2C0.0197
; #@! TA.AperFunction,Plated,PTH,ComponentDrill
T3C0.0197
; #@! TA.AperFunction,Plated,PTH,ComponentDrill
T4C0.0315
; #@! TA.AperFunction,Plated,PTH,ComponentDrill
T5C0.0354
; #@! TA.AperFunction,Plated,PTH,ComponentDrill
T6C0.0433
; #@! TA.AperFunction,Plated,PTH,ComponentDrill
T7C0.0469
%
G90
G05
T1
X0.3661Y-1.8744
X0.8555Y-1.7122
X0.8724Y-1.3343
X1.0492Y-1.7496
X1.4339Y-1.4091
X1.5488Y-1.3683
X1.8142Y-1.7102
X1.8169Y-1.4292
X1.8539Y-1.8413
X2.0157Y-1.7516
X2.2047Y-0.4331
X2.5189Y-0.5673
X2.6772Y-0.4331
X3.1228Y-1.3008
X3.1387Y-1.6819
X3.1974Y-1.7646
X3.2157Y-0.622
X3.2587Y-1.4224
X3.2742Y-1.0677
X3.3004Y-0.7476
X3.3409Y-1.6602
X3.3414Y-0.7463
X3.3689Y-1.2039
X3.3932Y-1.0611
X3.41Y-1.2212
X3.4101Y-0.7412
X3.4357Y-1.069
X3.454Y-0.7419
X3.4598Y-0.9095
X3.4848Y-1.2389
X3.5256Y-1.2555
X3.5721Y-1.0652
X3.5724Y-1.0258
X3.5736Y-0.9839
X3.575Y-1.484
X3.5752Y-0.9409
X3.585Y-1.7244
X3.6307Y-1.2315
X3.6453Y-1.1782
X3.6701Y-0.7402
X3.7205Y-0.8837
X3.7299Y-1.2697
X3.7386Y-0.9193
X3.7425Y-1.0486
X3.8053Y-1.0915
X3.8297Y-1.0343
X3.832Y-0.995
X3.8343Y-0.8083
X3.8374Y-0.956
X3.8382Y-0.9087
X3.8413Y-1.1909
X3.8474Y-0.8669
X3.8555Y-1.078
X3.9244Y-1.8394
X3.9394Y-0.6118
X3.9465Y-1.261
X3.9748Y-0.748
X3.976Y-1.0303
X3.9811Y-1.1343
X4.0602Y-1.5124
X4.1567Y-1.7638
X4.2685Y-1.4839
X4.3433Y-1.1559
X4.3689Y-0.7921
X4.372Y-1.1917
X4.3921Y-0.8976
X4.3976Y-0.8465
X4.428Y-0.7051
X4.4364Y-0.9839
X4.4752Y-1.0638
X4.5177Y-1.0146
T2
X0.2116Y-0.9819
X0.348Y-1.7268
X0.5921Y-1.937
X0.6431Y-0.9835
X0.9272Y-1.7992
X1.0394Y-0.4882
X1.2969Y-1.8043
X1.3488Y-1.726
X1.9256Y-1.2662
X2.1531Y-1.2713
X2.1531Y-1.6417
X2.2646Y-1.8024
X2.3165Y-1.724
X2.3943Y-0.5693
X2.9272Y-1.2701
X3.021Y-0.7457
X3.1388Y-0.8783
X3.1984Y-1.1531
X3.4071Y-0.5051
X3.4524Y-1.813
X3.6439Y-0.5415
X3.7687Y-0.7287
X3.7697Y-1.2028
X3.9144Y-1.1978
X4.1004Y-0.7465
X4.4181Y-1.8161
X4.4701Y-1.7378
T4
X0.7091Y-0.3776
X0.7091Y-1.5776
X0.8091Y-0.3776
X0.8091Y-1.5776
X0.9091Y-0.3776
X0.9091Y-1.5776
X1.0091Y-0.3776
X1.0091Y-1.5776
X1.1091Y-0.3776
X1.1091Y-1.5776
X1.6689Y-0.3772
X1.6689Y-1.5772
X1.7689Y-0.3772
X1.7689Y-1.5772
X1.8689Y-0.3772
X1.8689Y-1.5772
X1.9689Y-0.3772
X1.9689Y-1.5772
X2.0689Y-0.3772
X2.0689Y-1.5772
X2.8512Y-0.378
X2.8512Y-1.578
X2.9512Y-0.378
X2.9512Y-1.578
X3.0512Y-0.378
X3.0512Y-1.578
X3.1512Y-0.378
X3.1512Y-1.578
X3.2512Y-0.378
X3.2512Y-1.578
X3.8114Y-0.378
X3.8114Y-1.578
X3.9114Y-0.378
X3.9114Y-1.578
X4.0114Y-0.378
X4.0114Y-1.578
X4.1114Y-0.378
X4.1114Y-1.578
X4.2114Y-0.378
X4.2114Y-1.578
T5
X2.4104Y-0.7874
X2.4104Y-1.1417
X2.5104Y-0.7874
X2.5104Y-1.1417
T6
X4.5894Y-0.4402
X4.5894Y-0.6173
X4.5894Y-0.7441
X4.5894Y-0.9213
X4.5898Y-1.0476
X4.5898Y-1.2248
X4.5909Y-1.3508
X4.5909Y-1.528
X4.8453Y-0.4402
X4.8453Y-0.6173
X4.8453Y-0.7441
X4.8453Y-0.9213
X4.8457Y-1.0476
X4.8457Y-1.2248
X4.8469Y-1.3508
X4.8469Y-1.528
T7
X1.4425Y-1.8205
X1.5425Y-1.8205
X1.6425Y-1.8205
X2.6539Y-1.8197
X2.7539Y-1.8197
X2.8539Y-1.8197
X2.9539Y-1.8197
X3.6827Y-1.8343
X3.7827Y-1.8343
T3
G00X3.6024Y-1.3396
M15
G01X3.6299Y-1.3396
M16
G05
G00X3.7047Y-1.4242
M15
G01X3.748Y-1.4242
M16
G05
G00X3.8228Y-1.3396
M15
G01X3.8504Y-1.3396
M16
G05
T0
M30
